<svg width="73" height="57" viewBox="0 0 73 57" fill="none" xmlns="http://www.w3.org/2000/svg">
	<path d="M14.1908 30.7738C14.2646 30.4079 14.4054 30.0491 14.539 29.7008C14.6833 29.335 14.7958 29.036 15.0139 28.6983C15.116 28.54 15.2109 28.4168 15.3551 28.2937C15.5064 28.1635 15.6682 28.0756 15.8687 28.0475C16.0446 28.0263 16.1994 28.058 16.3577 28.1354C16.5442 28.2269 16.6638 28.3359 16.7975 28.4907C17.1281 28.8847 17.2688 29.2963 17.3849 29.7853C17.5151 30.3551 17.5256 30.9391 17.3849 31.509C17.311 31.8045 17.2196 32.0402 17.0824 32.3146C17.0648 32.3885 16.808 32.7825 16.7517 32.8669C16.5125 33.2116 16.2416 33.5247 15.9602 33.8343C15.7561 34.0559 15.5416 34.2705 15.3165 34.471C15.1265 34.6399 14.933 34.8017 14.7254 34.9459C14.5284 35.0796 14.3912 35.1464 14.1485 35.164C14.05 35.1711 13.9515 35.1535 13.8636 35.1042C13.7862 35.0515 13.7264 34.9776 13.6877 34.8967C13.6842 34.8861 13.6807 34.8756 13.6772 34.8685C13.5892 34.6645 13.5821 34.5132 13.5997 34.2986C13.6244 34.0489 13.6736 33.8026 13.7194 33.5599C13.7721 33.2996 13.8319 33.0463 13.8882 32.7895C13.9656 32.4518 14.0184 32.1105 14.057 31.7658C14.0711 31.6532 14.0852 31.3894 14.1098 31.2979C14.1309 31.1185 14.1521 30.9497 14.1908 30.7738ZM45.3025 42.4002C45.5171 42.0871 45.7844 41.8303 46.0764 41.5876C46.1995 41.4856 46.3156 41.3941 46.4493 41.3026C46.4633 41.2886 46.4915 41.2745 46.5266 41.2534C46.6286 41.1971 46.801 41.1303 46.8608 41.1092C47.0121 41.0634 47.1458 41.0423 47.3076 41.0458C47.4976 41.0458 47.6699 41.0845 47.8458 41.1654C47.9971 41.2323 48.1238 41.3202 48.2434 41.4363C48.363 41.5559 48.4403 41.665 48.5142 41.8162C48.5916 41.9851 48.6374 42.1188 48.662 42.3017C48.6655 42.3087 48.669 42.3228 48.669 42.3439C48.6655 42.4776 48.5951 42.8681 48.5811 42.9349C48.479 43.438 48.2644 43.9164 47.9549 44.328C47.7086 44.6586 47.4026 44.933 47.0684 45.1687C46.8257 45.3411 46.5724 45.4889 46.3121 45.6331C46.1573 45.721 45.9954 45.8019 45.8266 45.8617C45.6964 45.9075 45.5733 45.9462 45.4396 45.9673C45.2813 45.9884 45.1723 45.9708 45.0175 45.9356C44.926 45.918 44.8381 45.8899 44.7572 45.8477C44.7044 45.8231 44.6516 45.7949 44.6059 45.7597C44.5778 45.7351 44.5461 45.7105 44.5215 45.6859C44.4054 45.5698 44.3456 45.4677 44.321 45.3094C44.2928 45.1371 44.3034 44.9682 44.3245 44.7994C44.3561 44.6024 44.4089 44.4089 44.4722 44.2224C44.5742 43.9269 44.6798 43.635 44.7994 43.3465C44.9401 43.0193 45.0984 42.6957 45.3025 42.4002ZM61.8468 28.6596C61.889 28.4239 62.0473 28.1671 62.1634 27.9595C62.3287 27.6675 62.4554 27.4424 62.6841 27.1856C62.8001 27.0554 62.9057 26.9569 63.0534 26.8619C63.2188 26.7564 63.3876 26.6931 63.5846 26.686C63.5881 26.686 63.5881 26.686 63.5881 26.686C63.7605 26.6755 63.9117 26.7142 64.0665 26.7881C64.2389 26.8725 64.3515 26.9675 64.4782 27.1082C64.7666 27.4283 64.8898 27.7379 65.0023 28.1459C65.1184 28.5575 65.1465 28.9902 65.041 29.4053C64.9566 29.7395 64.7912 30.028 64.5766 30.2918C64.4078 30.4994 64.2178 30.6823 64.0349 30.8687C63.8942 31.013 63.7464 31.1502 63.5987 31.2839C63.4615 31.407 63.3278 31.5301 63.1801 31.6427C63.0182 31.7658 62.9092 31.8186 62.7016 31.8502C62.6067 31.8643 62.5117 31.8608 62.4167 31.8291C62.3393 31.801 62.269 31.7552 62.2092 31.6954C62.1986 31.6849 62.188 31.6743 62.1775 31.6638C62.0473 31.516 61.9945 31.3999 61.9558 31.2135C61.9136 31.02 61.896 30.823 61.882 30.6225C61.8714 30.4255 61.8715 30.2285 61.8715 30.028C61.875 29.7782 61.8644 29.5355 61.8468 29.2857C61.8327 29.0852 61.8081 28.8601 61.8468 28.6596ZM57.0133 24.2939C57.1434 23.6044 57.3053 22.922 57.4742 22.2395C57.5938 21.7646 57.6923 21.3319 57.8963 20.8781C57.9772 20.6952 58.0616 20.5439 58.1882 20.3891C58.3184 20.2343 58.4661 20.1147 58.6667 20.0655C58.8425 20.0198 59.0044 20.0409 59.1697 20.1183C59.3773 20.2132 59.5145 20.3469 59.6587 20.5263C60.0633 21.0434 60.218 21.6626 60.32 22.2993C60.4572 23.1753 60.4115 24.0758 60.2286 24.9412C60.1336 25.3704 60.021 25.7538 59.8733 26.1724C59.8627 26.278 59.5074 27.073 59.4371 27.2243C59.1592 27.8188 58.8426 28.3957 58.5119 28.9621C58.2868 29.3491 58.0475 29.729 57.7837 30.0878C57.5867 30.3587 57.3862 30.6225 57.154 30.8652C56.9711 31.0552 56.8269 31.1783 56.5595 31.2487C56.461 31.2733 56.359 31.2733 56.2675 31.2311C56.1761 31.1854 56.1128 31.1115 56.067 31.0235C56.067 31.0165 56.0635 31.0095 56.06 31.0024C55.9544 30.7808 55.9474 30.6014 55.9579 30.3622C55.979 30.035 56.0283 29.7114 56.0846 29.3913C56.1515 29.0008 56.2288 28.6138 56.3097 28.2269C56.4363 27.6183 56.5455 27.0062 56.6475 26.3941C56.7002 26.0775 56.746 25.6483 56.8234 25.3528C56.9008 25.0397 56.95 24.6211 57.0133 24.2939ZM51.4868 20.6881C51.5923 19.4288 51.6662 18.194 51.7119 16.9311C51.7119 16.8643 51.7154 16.7974 51.7189 16.7306C51.726 16.5125 51.7331 16.2979 51.7436 16.0798C51.7788 15.0913 51.7823 14.1063 51.8808 13.1178C51.916 12.7695 51.9582 12.4388 52.0602 12.1011C52.127 11.8865 52.2396 11.591 52.4823 11.5348C52.6934 11.4855 52.8869 11.6368 53.0276 11.7775C53.2844 12.0343 53.4567 12.3263 53.6186 12.6464C54.1392 13.6736 54.3925 14.7606 54.5825 15.8863C54.6317 16.1959 54.674 16.5019 54.7127 16.8115C54.8569 18.2679 54.8815 19.5097 54.7549 20.966C54.6212 22.3908 54.3187 23.7768 53.8895 25.1417C53.5412 26.2358 53.119 27.3052 52.6652 28.3605C52.3381 29.1169 51.9863 29.8662 51.6134 30.6014C51.3109 31.1924 51.0014 31.7834 50.6672 32.3568C50.4279 32.7684 50.1957 33.1483 49.8334 33.4684C49.749 33.5423 49.6047 33.6514 49.4851 33.6091C49.369 33.5529 49.3339 33.3629 49.3233 33.2433C49.3163 33.187 49.3127 33.1307 49.3092 33.078C49.2952 32.6945 49.3585 32.3357 49.4323 31.9593C49.4781 31.7236 49.5274 31.4914 49.5801 31.2557C49.6716 30.8406 49.7701 30.429 49.8686 30.0139C50.0445 29.2857 50.2239 28.5575 50.3962 27.8293C50.653 26.7494 50.8642 25.6624 51.0365 24.5683C51.237 23.2808 51.3777 21.9862 51.4868 20.6881ZM39.8217 34.2283C40.1031 33.7534 40.4162 33.3031 40.7469 32.8598C41.0283 32.4799 41.2745 32.1492 41.6368 31.8361C41.7881 31.706 41.9289 31.604 42.1188 31.5231C42.3053 31.4422 42.4917 31.407 42.6922 31.4598C42.8681 31.5055 42.9983 31.6005 43.1108 31.7377C43.2515 31.91 43.3184 32.0718 43.3747 32.2794C43.5295 32.8423 43.4802 33.3629 43.3853 33.9293C43.2621 34.6363 43.0124 35.3118 42.6289 35.9239C42.4319 36.2405 42.2314 36.4973 41.9816 36.7752C41.9183 36.8842 41.475 37.2818 41.3589 37.3838C41.0458 37.6511 40.7187 37.8974 40.3775 38.126C40.2649 38.1999 40.1488 38.2773 40.0327 38.3477C39.7021 38.5587 39.3573 38.7452 38.9985 38.907C38.71 39.0336 38.4216 39.1497 38.1155 39.2342C37.8622 39.301 37.6723 39.3291 37.4119 39.2517C37.3134 39.2201 37.229 39.1673 37.1692 39.0794C37.1305 39.0196 37.1129 38.9492 37.1129 38.8789C37.1094 38.8437 37.1129 38.812 37.1164 38.7804C37.1446 38.5376 37.2184 38.3864 37.3486 38.1894C37.5034 37.9431 37.6758 37.7109 37.8447 37.4752C37.9572 37.3205 38.0698 37.1621 38.1824 37.0074C38.2527 36.9053 38.3266 36.8033 38.3969 36.7013C38.6608 36.3284 38.8895 35.9379 39.1111 35.5369C39.1779 35.4138 39.3749 34.9987 39.4417 34.9178C39.5648 34.6856 39.6915 34.4569 39.8217 34.2283ZM16.0481 19.4815C16.0059 19.1649 16.0587 18.8202 16.115 18.5071C16.1783 18.1412 16.2381 17.8528 16.3964 17.5116C16.4738 17.3462 16.5512 17.216 16.6743 17.0788C16.8045 16.9311 16.9523 16.8256 17.1457 16.7728C17.3181 16.7236 17.4729 16.7271 17.6417 16.7728C17.8317 16.8221 17.9618 16.8924 18.1201 17.005C18.4825 17.2688 18.676 17.5502 18.9011 17.9266C19.1228 18.3066 19.2775 18.7182 19.3127 19.1614C19.3408 19.5237 19.281 19.8755 19.179 20.2238C19.0946 20.5123 18.9785 20.7937 18.8695 21.0786C18.785 21.2967 18.6936 21.5148 18.5951 21.7294C18.5036 21.9229 18.4157 22.1129 18.3066 22.2993C18.194 22.4893 18.1061 22.5913 17.9126 22.7074C17.8246 22.7566 17.7332 22.7848 17.6347 22.7813C17.5362 22.7777 17.4447 22.7426 17.3638 22.6898C17.3603 22.6863 17.3568 22.6828 17.3533 22.6828C17.1844 22.5632 17.1 22.4541 17.0085 22.2712C16.91 22.0742 16.8326 21.8737 16.7588 21.6661C16.6814 21.4586 16.6145 21.2475 16.5512 21.0364C16.4703 20.769 16.3718 20.5087 16.2698 20.2449C16.1783 19.9986 16.0833 19.7454 16.0481 19.4815ZM22.2747 18.2714C22.1867 17.4975 22.127 16.7236 22.0707 15.9496C22.0214 15.334 21.9652 14.7536 22.0144 14.1344C22.032 13.8882 22.0601 13.6736 22.1446 13.4414C22.2184 13.2409 22.3275 13.058 22.5315 12.97C22.7109 12.8926 22.8833 12.9208 23.0557 12.9876C23.3019 13.0861 23.4743 13.2268 23.6572 13.4098C24.1884 13.9304 24.5191 14.5495 24.8181 15.2179C25.2051 16.0798 25.4513 16.9909 25.5358 17.9302C25.6167 18.7709 25.5674 19.6117 25.4372 20.4454C25.3282 21.1455 25.1594 21.835 24.9694 22.5174C24.8322 23.0099 24.6739 23.4919 24.4874 23.9668C24.3362 24.3467 24.1779 24.7231 23.9879 25.0819C23.8402 25.3598 23.7064 25.5779 23.4356 25.7609C23.3511 25.8207 23.2421 25.8664 23.1331 25.8418C23.024 25.8066 22.9502 25.7116 22.8974 25.6166C22.8868 25.5885 22.8728 25.5639 22.8622 25.5357C22.7567 25.3071 22.732 25.096 22.7144 24.8357C22.6863 24.4452 22.6828 24.0512 22.6757 23.6607C22.6687 23.2175 22.6652 22.7742 22.6546 22.3345C22.6441 21.6872 22.5949 21.0434 22.528 20.4032C22.4541 19.6926 22.3556 18.982 22.2747 18.2714ZM43.3853 16.1642C43.3677 15.7632 43.4099 15.3586 43.4556 14.9611C43.5013 14.5495 43.54 14.2083 43.6737 13.8073C43.7335 13.6243 43.8004 13.4766 43.9129 13.3183C44.029 13.153 44.1697 13.0298 44.3632 12.963C44.532 12.9032 44.6904 12.9067 44.8627 12.9524C45.0633 13.0052 45.2039 13.0896 45.3693 13.2163C45.7808 13.5399 46.013 13.9163 46.2417 14.3772C46.5055 14.9154 46.6603 15.4958 46.6638 16.0974C46.6603 16.3999 46.6322 16.6567 46.5689 16.9557C46.5689 17.0507 46.407 17.5186 46.3648 17.6312C46.21 18.0427 46.006 18.4332 45.7879 18.8131C45.6261 19.0946 45.4502 19.3655 45.2567 19.6258C45.0949 19.8404 44.926 20.0514 44.736 20.2449C44.5637 20.4208 44.4335 20.5263 44.1873 20.5897C44.0888 20.6143 43.9868 20.6143 43.8953 20.5791C43.7968 20.5334 43.7265 20.4595 43.6737 20.368C43.6702 20.3575 43.6631 20.3504 43.6596 20.3399C43.5576 20.157 43.5329 20.0057 43.5224 19.7911C43.5083 19.5308 43.5154 19.274 43.5224 19.0172C43.5294 18.7498 43.54 18.4825 43.5471 18.2151C43.5541 17.8669 43.533 17.5221 43.4908 17.1738C43.4802 17.0789 43.4239 16.7552 43.4309 16.6849C43.4098 16.509 43.3923 16.3401 43.3853 16.1642ZM37.0848 16.3823C36.9898 15.429 36.9194 14.4721 36.8561 13.5153C36.8385 13.255 36.747 12.2137 36.7857 12.0308C36.7963 11.8021 36.8104 11.5805 36.835 11.3518C36.8631 11.095 36.9054 10.8593 37.0074 10.6201C37.0918 10.4196 37.2149 10.2402 37.4365 10.1734C37.6195 10.1206 37.7919 10.1698 37.9572 10.2543C38.1929 10.3809 38.3547 10.5392 38.5271 10.7397C38.7241 10.9754 38.8683 11.19 39.0196 11.4609C39.097 11.5136 39.5754 12.7449 39.6388 12.9208C40.0116 13.9409 40.2614 14.9998 40.3493 16.0833C40.4267 17.0437 40.374 18.0076 40.2192 18.9574C40.0855 19.7559 39.8815 20.5404 39.6282 21.3108C39.4453 21.8666 39.2307 22.4154 38.9774 22.9431C38.7698 23.3687 38.5517 23.7873 38.2914 24.1849C38.0979 24.4804 37.915 24.7266 37.6019 24.9131C37.5069 24.9693 37.3873 25.0151 37.2818 24.9729C37.1728 24.9201 37.12 24.797 37.0918 24.6879C37.0602 24.5683 37.0426 24.4522 37.0391 24.3432C37.0285 24.1813 37.0355 24.0266 37.0496 23.8577C37.0531 23.8331 37.0567 23.8085 37.0567 23.7838C37.0989 23.3441 37.1551 22.9044 37.2009 22.4646C37.2536 21.9757 37.2994 21.4867 37.3275 20.9977C37.3697 20.2801 37.3556 19.566 37.3099 18.8518C37.2853 18.493 37.2571 18.1307 37.222 17.7754C37.1762 17.311 37.127 16.8467 37.0848 16.3823ZM29.3279 18.8061C29.3807 18.0709 29.4335 17.3321 29.4827 16.5969C29.539 15.7526 29.5918 14.9084 29.6445 14.0641C29.7114 12.9102 29.7571 11.7669 29.919 10.6236C29.9753 10.2261 30.0421 9.84269 30.1758 9.46628C30.2532 9.25169 30.3903 8.9175 30.6471 8.88584C30.6506 8.88584 30.6507 8.88584 30.6507 8.88584C30.8688 8.8577 31.0517 9.06522 31.1713 9.22704C31.407 9.55068 31.5513 9.90248 31.692 10.2789C32.1282 11.4714 32.3322 12.7132 32.487 13.9691C32.6981 15.6541 32.7367 17.3532 32.5995 19.0418C32.4729 20.5791 32.1985 22.0988 31.8151 23.5904C31.4915 24.8533 31.0904 26.0986 30.6366 27.3228C30.3095 28.2058 29.9471 29.0747 29.5426 29.926C29.2225 30.6014 28.8812 31.2663 28.5013 31.9065C28.4766 31.9522 28.4485 31.998 28.4204 32.0402C28.1847 32.4342 27.9349 32.8036 27.5796 33.1061C27.4917 33.18 27.3333 33.2961 27.2137 33.2468C27.1012 33.1835 27.0836 32.9759 27.0801 32.8563C27.0695 32.3814 27.168 31.9452 27.2736 31.4879C27.2771 31.4773 27.2771 31.4703 27.2806 31.4598C27.4424 30.7632 27.6218 30.0667 27.7907 29.3702C27.9842 28.5505 28.1706 27.7344 28.3429 26.9112C28.5962 25.6694 28.7897 24.4206 28.9375 23.1647C29.1099 21.7153 29.2224 20.259 29.3279 18.8061ZM14.743 13.5012C13.4274 14.5566 12.1645 15.7245 10.9157 17.0788C10.6765 17.216 9.24115 19.1684 9.00546 19.5237C8.00991 21.054 7.3591 22.3591 6.88067 24.1286C6.28616 26.6825 6.43039 28.5329 7.42594 30.9602C8.74864 33.9152 10.0432 36.1983 12.0343 38.7557C13.9339 41.0916 15.6436 42.6676 18.1448 44.3491C22.0602 46.8256 25.4161 47.9513 29.9576 48.7886C32.9478 49.2811 35.6389 49.4746 38.6678 49.5027C44.6692 49.4429 49.3198 48.6232 54.8886 46.3859C56.9641 45.4994 58.6772 44.5883 60.5593 43.3465C61.5091 42.6711 62.3639 42.0097 63.159 41.3132C63.3911 40.9473 63.6128 40.578 63.8274 40.1945C65.1993 37.6758 65.9591 35.6002 66.3707 32.7543C66.4833 31.8045 66.522 30.9461 66.4974 29.9893C66.413 27.9771 66.1104 26.4011 65.4983 24.4839C64.1897 20.8113 62.5257 18.2257 60.0668 15.2179C59.9225 14.9506 58.8461 13.9023 58.5682 13.6419C55.7328 11.0985 53.0311 9.75823 49.4253 8.59383C46.9206 7.84453 44.7361 7.44704 42.1364 7.20783C39.4769 7.00379 37.1164 7.01083 34.457 7.21487C30.1265 7.61238 26.6333 8.34056 22.5209 9.7688C21.3143 10.205 20.1816 10.6729 19.0172 11.2111C17.4729 11.9428 16.0868 12.6851 14.7465 13.5012H14.743ZM6.76463 43.0827C4.30918 39.9659 2.76836 37.2149 1.24513 33.5634C-0.264016 29.5777 -0.394216 26.4152 0.815918 22.3345C1.64964 19.8615 2.65228 18.099 4.23179 16.0341C5.06903 14.9717 5.90273 14.0605 6.87717 13.1213C8.94214 11.2463 10.9473 9.77935 13.1107 8.57274C14.1204 7.80585 15.2039 7.07766 16.407 6.33891C17.6804 5.58258 18.9187 4.92825 20.259 4.30208C24.885 2.22304 28.7686 1.16418 33.7921 0.534492C36.8878 0.207334 39.5508 0.161602 42.6535 0.411368C45.7809 0.706866 48.4122 1.19584 51.4235 2.09993C56.1268 3.62315 59.5567 5.38558 63.261 8.69586C64.0068 9.39239 64.6505 10.0749 65.3048 10.8558C68.3689 14.6621 70.3107 17.9477 71.6369 22.6722C72.3088 25.3 72.5481 27.4072 72.4109 30.1124C72.3229 31.3999 72.1611 32.5292 71.8691 33.7885C71.549 35.062 71.1831 36.2018 70.7328 37.2712C70.5851 37.8376 70.3951 38.4004 70.1595 39.009C70.1559 39.0161 70.1454 39.0407 70.1454 39.0442C68.6714 42.6254 66.6627 44.9928 63.7605 47.5081C61.7026 49.2494 59.7994 50.4842 57.4108 51.7365C51.1104 54.8498 45.7175 56.0353 38.703 56.2499C35.1957 56.2745 32.1598 56.081 28.7018 55.4936C23.207 54.4453 19.172 53.0311 14.4299 50.0374C11.3096 47.9478 9.15323 45.9778 6.76463 43.0862V43.0827Z" fill="#fdc374" />
</svg>