<svg width="58" height="56" viewBox="0 0 58 56" fill="none" xmlns="http://www.w3.org/2000/svg">
	<path d="M19.0498 10.0391C16.8785 12.4411 15.0242 9.34269 19.0174 7.42372C20.6992 6.61301 20.9084 7.36551 20.3478 8.18269C19.9144 8.79934 19.4832 9.41815 19.0498 10.0391ZM43.4013 39.9449C42.3858 40.9346 40.1153 38.276 42.9011 37.9526C44.6907 37.7456 43.5954 39.7551 43.4013 39.9449ZM46.1849 42.5732C43.6924 44.7704 42.2047 41.5081 46.5256 39.9276C47.8063 39.4598 48.7033 39.781 47.4268 41.217C47.0128 41.6698 46.5989 42.1205 46.1849 42.5732ZM32.116 46.1395C34.0178 44.2723 35.6996 47.4677 32.3058 48.3948C29.6494 49.1193 31.6093 46.8424 32.116 46.1395ZM26.8335 43.2891C30.2294 40.4667 30.6326 45.0981 25.7231 46.0942C23.0171 46.6419 26.1996 43.8152 26.8335 43.2891ZM10.0824 23.9182C10.5265 23.4611 12.204 23.7026 11.8957 25.0265C11.6175 26.2102 8.82533 26.2857 9.68132 24.7376C9.815 24.4638 9.94867 24.1899 10.0824 23.9182ZM17.3421 33.7783C17.7734 33.2889 19.5759 33.1875 19.2675 34.7011C18.9829 36.094 15.9816 36.2212 16.9044 34.6408C17.051 34.354 17.1955 34.0651 17.3421 33.7783ZM14.1898 31.1607C17.6547 27.174 18.5064 31.6696 13.6616 34.3303C12.1673 35.1518 10.4165 35.2617 12.4886 33.3104C13.0557 32.5946 13.6227 31.8766 14.1898 31.1607ZM23.1076 15.7809C22.1072 17.1134 20.2551 15.6861 21.3763 14.3816C21.525 14.207 24.0887 12.5683 23.4095 14.9185C23.3103 15.2053 23.209 15.492 23.1076 15.7809ZM25.9322 18.7392C22.4155 25.3564 21.8614 17.4455 26.9046 14.7697C28.0646 14.1552 28.7761 14.3363 28.1315 15.1815C26.689 17.0746 26.9844 16.7598 25.9322 18.7392ZM30.6843 21.0959C29.561 22.7992 28.4355 24.5004 27.3121 26.2038C25.8481 27.6009 26.4734 21.7168 30.9344 17.4239C32.5904 15.8305 34.5396 14.056 36.9092 13.7369C38.0476 13.5817 35.6133 15.2268 34.5331 16.3631C32.9052 18.0751 32.0557 19.0712 30.6843 21.0959ZM41.2904 34.6968C40.76 34.9254 38.1554 35.9495 37.6401 35.5895C34.919 33.6834 38.7354 25.4707 40.3072 25.6863C40.8139 25.7553 39.9903 27.5492 39.7207 28.5432C39.3779 30.2336 39.0351 31.924 38.6923 33.6144C42.9787 30.4686 48.3281 32.5773 45.8356 33.0905C43.5372 33.5627 43.3021 33.8279 41.2904 34.6968ZM13.9289 6.07828C12.7409 6.85881 11.6714 7.87651 10.8607 9.08827C14.4011 12.8012 17.355 17.0401 20.3909 21.167C27.89 31.3548 35.6651 41.2709 46.7326 47.7631C49.5701 45.4948 52.3256 42.073 52.4097 38.3041C52.5779 30.57 46.4479 19.6728 41.1934 13.9913C35.2187 7.52722 27.2043 3.41329 18.334 4.80616C16.7061 5.09077 15.352 5.45731 13.9289 6.07828ZM39.475 51.8511C41.146 51.2021 42.5841 50.5122 44.0309 49.6346C31.3441 43.6492 20.6604 31.4561 12.7991 20.1019C11.1777 17.7797 9.51529 15.4834 7.76234 13.2583C4.12061 16.4882 5.53503 24.08 6.85028 27.9761C8.84256 33.8818 13.1915 39.1148 18.0062 43.0929C24.121 48.1469 31.2946 52.5368 39.475 51.8511ZM56.3145 29.052C58.8652 37.1139 58.6151 43.537 52.0712 49.4125C50.812 50.5251 49.6498 51.3703 48.2095 52.2371C45.5273 53.7701 43.2202 54.6649 40.221 55.2406C38.0239 55.9176 36.0726 56.0858 33.6361 55.9629C17.299 55.122 -3.16718 34.4187 0.412028 16.9388C1.2443 12.9866 2.5531 11.0396 5.69029 8.88558C5.59542 9.02358 7.24488 6.57635 8.78437 5.12526C10.4618 3.65046 11.6585 3.33351 13.4072 2.5422C14.6448 1.81558 15.9147 1.3132 17.4348 0.860407C23.5238 -0.888229 30.3157 0.138093 35.9195 2.94755C45.5014 7.75145 52.9574 19.0949 56.3145 29.052ZM20.4383 2.42146C20.4383 2.42146 20.4383 2.42146 20.4405 2.42146H20.4383Z" fill="#fdc374" />
</svg>