<svg width="70" height="73" viewBox="0 0 70 73" fill="none" xmlns="http://www.w3.org/2000/svg">
	<path d="M41.693 55.1311C41.855 54.9009 42.0851 54.7518 42.3494 54.658C42.6179 54.5642 42.8182 54.5429 43.1038 54.5898C43.2615 54.6154 43.3979 54.6537 43.547 54.7091C43.7388 54.7858 43.9178 54.8839 44.0883 55.0032H44.0926C44.2417 55.1055 44.3782 55.2206 44.506 55.3527C44.6254 55.4763 44.7148 55.5914 44.7958 55.7406C44.9578 56.0347 44.9919 56.235 44.9749 56.5589C44.9621 56.8615 44.8683 57.1429 44.6765 57.3773C44.506 57.5904 44.2716 57.7481 44.0372 57.876C43.8241 57.991 43.5982 58.0848 43.3766 58.1786C43.2146 58.251 43.0526 58.3064 42.8822 58.3448C42.733 58.3789 42.5923 58.4045 42.4431 58.4045C42.2598 58.4087 42.1405 58.3619 41.9785 58.2809C41.8848 58.234 41.7953 58.1786 41.7143 58.1104C41.6333 58.0379 41.5565 57.9612 41.4926 57.8717C41.3946 57.7396 41.3307 57.633 41.2966 57.4711C41.2625 57.3219 41.254 57.1812 41.2497 57.032C41.2497 56.8743 41.2625 56.7166 41.2881 56.5589C41.3264 56.3245 41.3562 56.0901 41.4074 55.8557C41.4628 55.6042 41.5438 55.3442 41.693 55.1311ZM35.8665 48.8145C36.0711 48.4906 36.3482 48.205 36.6849 48.0217C36.9577 47.8725 37.1665 47.8171 37.4819 47.864C37.6353 47.8853 37.7718 47.928 37.9167 47.9876C38.1042 48.0643 38.2874 48.1624 38.4622 48.2732C38.6156 48.3712 38.7605 48.4778 38.8927 48.6014C39.0163 48.7122 39.1186 48.8187 39.2081 48.9594C39.3956 49.2535 39.4212 49.4709 39.3914 49.8118C39.3573 50.1954 39.2039 50.5577 38.9865 50.8689C38.7776 51.1757 38.4963 51.44 38.2107 51.6744C37.9805 51.8662 37.7334 52.0367 37.4819 52.2029C37.3327 52.301 37.1708 52.3947 37.0003 52.4544C36.8682 52.5013 36.7488 52.5311 36.6081 52.5311C36.4547 52.5269 36.3183 52.4757 36.1734 52.4288C36.0754 52.3947 35.9773 52.3564 35.8793 52.3138C35.7813 52.2711 35.6875 52.22 35.598 52.1561C35.4702 52.0666 35.3721 51.9813 35.3039 51.8364C35.2357 51.6957 35.2059 51.5508 35.1931 51.3974C35.1761 51.2141 35.1888 51.0266 35.2187 50.8433C35.2655 50.5236 35.3295 50.2082 35.4147 49.8971C35.517 49.522 35.6576 49.1427 35.8665 48.8145ZM30.948 46.6109C31.4125 45.8437 31.9794 45.085 32.623 44.4628C32.9852 44.1133 33.3859 43.7638 33.8931 43.6572C34.0807 43.6146 34.2426 43.6146 34.4302 43.6657C34.6433 43.7169 34.818 43.8234 34.98 43.9641C35.1206 44.0834 35.2442 44.2155 35.3465 44.369C35.4531 44.5309 35.517 44.6631 35.5554 44.8464C35.6577 45.345 35.4872 45.8096 35.3167 46.2699C35.0226 47.0712 34.5836 47.8598 34.1233 48.5801C33.6459 49.3345 33.1089 50.0548 32.559 50.7581C32.1285 51.3164 31.6853 51.862 31.242 52.4075C30.9863 52.7272 30.7221 53.0469 30.4365 53.3409C30.266 53.5157 30.0784 53.699 29.8738 53.8354C29.6906 53.9504 29.5712 53.9718 29.3539 53.9675C29.2516 53.9675 29.1407 53.9504 29.0385 53.9206C28.9362 53.8865 28.8382 53.8396 28.7529 53.7629C28.5952 53.6223 28.5313 53.4859 28.5014 53.2813C28.4673 53 28.5014 52.7059 28.5483 52.4288C28.6208 52.0325 28.7359 51.6318 28.8637 51.2482C29.1067 50.5364 29.3709 49.8331 29.665 49.1427C30.0358 48.2774 30.4535 47.4165 30.948 46.6109ZM51.219 36.7567C51.04 37.1019 50.763 37.4003 50.4774 37.6603C50.1748 37.933 49.9233 38.1334 49.5397 38.2911C49.3564 38.3678 49.1988 38.4147 48.9984 38.4317C48.7768 38.4488 48.5764 38.4189 48.3718 38.3252C48.1928 38.2399 48.0565 38.1291 47.9329 37.9799C47.8008 37.818 47.7283 37.6731 47.6643 37.477C47.5109 37.0337 47.5194 36.697 47.562 36.241C47.6004 35.7806 47.7154 35.3416 47.9499 34.9452C48.1545 34.5957 48.4315 34.3059 48.7341 34.0459C49.0027 33.82 49.2968 33.6154 49.5823 33.4108C49.8082 33.2531 50.0341 33.1082 50.2728 32.9804C50.4816 32.8653 50.6905 32.7587 50.9121 32.6735C51.138 32.5882 51.2873 32.5627 51.5345 32.6095C51.5984 32.6223 51.658 32.6436 51.7134 32.6692C51.7561 32.6905 51.7944 32.7161 51.8285 32.7459C51.9137 32.8227 51.9734 32.9164 52.0118 33.0272C52.0885 33.2361 52.0927 33.381 52.0629 33.5984C52.0288 33.8285 51.9777 34.0459 51.9223 34.2718C51.8626 34.4977 51.8029 34.7193 51.7347 34.9452C51.6495 35.2436 51.5898 35.5419 51.5216 35.8446C51.4492 36.16 51.3682 36.4711 51.219 36.7567ZM40.5038 26.408C40.3759 26.6211 40.1969 26.8342 39.9923 26.9791C39.954 27.009 39.9113 27.0474 39.873 27.0772C39.63 27.2605 39.4681 27.3372 39.1783 27.4352C39.0291 27.4864 38.8842 27.5247 38.7307 27.5588C38.5262 27.6057 38.3258 27.6398 38.117 27.6398C37.9252 27.6441 37.7505 27.6142 37.5757 27.5375C37.3882 27.4565 37.2688 27.3542 37.1452 27.1923C36.8511 26.7959 36.8213 26.3569 36.8596 25.8795C36.8639 25.8198 36.8937 25.6493 36.8937 25.6067C36.881 25.3041 37.175 24.6648 37.3455 24.409C37.4904 24.1917 37.631 24.0425 37.8058 23.8549C37.9464 23.7058 38.1468 23.5438 38.3173 23.4159C38.6241 23.1815 38.9524 22.9769 39.2891 22.7894C39.5107 22.6615 39.7452 22.5507 39.9881 22.4697C40.1756 22.4058 40.3632 22.3504 40.5593 22.3376C40.7638 22.3205 40.8874 22.3589 41.0664 22.4612C41.1175 22.491 41.1687 22.5251 41.2113 22.5635C41.2497 22.5933 41.2795 22.6274 41.3136 22.6615C41.3861 22.7425 41.4415 22.8363 41.4884 22.9386C41.5608 23.1048 41.5906 23.2241 41.5779 23.4074C41.5651 23.5907 41.5225 23.7654 41.4756 23.9402C41.4202 24.1448 41.3477 24.3408 41.2668 24.5369C41.1474 24.8438 41.0366 25.1549 40.9215 25.4618C40.8747 25.5812 40.7766 25.871 40.7212 25.9647C40.653 26.1224 40.5891 26.2631 40.5038 26.408ZM45.0772 30.2142C44.668 30.9899 44.2077 31.7486 43.692 32.4604C43.3681 32.9122 43.0441 33.3426 42.5752 33.658C42.4005 33.7774 42.2386 33.8541 42.0297 33.9052C41.8123 33.9564 41.6035 33.9521 41.3904 33.8797H41.3861C41.1985 33.8158 41.0494 33.7177 40.9215 33.5685C40.7681 33.3895 40.6956 33.2276 40.6359 33.0059C40.474 32.3837 40.5934 31.7571 40.7297 31.1433C40.9429 30.1971 41.3221 29.2765 41.791 28.4368C42.0637 27.9552 42.3408 27.5247 42.6647 27.0772C42.7841 26.8598 43.2018 26.391 43.3808 26.1864C43.8582 25.6366 44.3739 25.1251 44.9195 24.6435C45.0388 24.5412 45.2136 24.4133 45.3201 24.311C45.5375 24.0979 45.968 23.7995 46.2322 23.6333C46.5903 23.4074 46.9739 23.2028 47.3788 23.0792C47.6686 22.9897 47.9201 22.9556 48.2142 23.0835C48.2696 23.1091 48.3207 23.1432 48.3634 23.1858C48.4017 23.2199 48.4315 23.2625 48.4571 23.3136C48.504 23.4202 48.5083 23.5395 48.4912 23.6546C48.4486 23.9103 48.3761 24.0595 48.244 24.2769C48.0692 24.5667 47.8775 24.8438 47.6985 25.1293C47.545 25.3723 47.3489 25.7346 47.1912 25.9477C47.1444 26.0074 47.0719 26.1651 47.0292 26.2375C46.7224 26.8001 46.4496 27.3841 46.1768 27.968C46.0276 28.2877 45.8785 28.6244 45.7208 28.9355C45.5034 29.3617 45.3031 29.7922 45.0772 30.2142ZM13.9161 24.7884C14.0567 24.6136 14.2869 24.5412 14.5001 24.5241C14.7643 24.4986 14.9561 24.5369 15.1947 24.6562C15.3311 24.7287 15.4463 24.8097 15.5656 24.9077C15.7233 25.0441 15.8597 25.1933 15.9918 25.3553C16.1069 25.4959 16.2092 25.6408 16.3115 25.7943C16.3967 25.9221 16.4777 26.05 16.5544 26.1864C16.6737 26.3995 16.7547 26.5615 16.8101 26.8001C16.8442 26.9664 16.8485 27.1369 16.7206 27.2605C16.6098 27.3713 16.418 27.431 16.2689 27.4651C16.0984 27.5077 15.9193 27.5332 15.7446 27.5673C15.6082 27.5887 15.4718 27.6057 15.3312 27.6057C15.2033 27.6057 15.0797 27.5972 14.9518 27.5673C14.7899 27.529 14.6791 27.4608 14.5427 27.3627C14.4574 27.2988 14.3807 27.2306 14.3083 27.1539C14.2315 27.0772 14.1633 26.9962 14.0994 26.9067C14.0141 26.7874 13.9459 26.6765 13.8905 26.5401C13.8479 26.4251 13.8138 26.31 13.7882 26.1906C13.7669 26.0713 13.7542 25.9562 13.7499 25.8369C13.7414 25.6664 13.7328 25.4874 13.7456 25.3169C13.7584 25.1336 13.801 24.9375 13.9161 24.7884ZM16.6567 29.2552C17.0361 28.7863 17.5006 28.3644 18.0206 28.0618C18.3829 27.8529 18.7196 27.6995 19.1459 27.7208C19.3249 27.7336 19.4741 27.7719 19.636 27.8487C19.8278 27.9424 19.9855 28.0746 20.1304 28.2323C20.254 28.3686 20.3564 28.5178 20.4416 28.684C20.5226 28.846 20.5694 28.9824 20.5993 29.1614C20.6717 29.5834 20.5694 29.8689 20.4117 30.2525C20.2071 30.7555 19.8917 31.2243 19.538 31.6378C19.1885 32.0469 18.7836 32.4177 18.3744 32.7672C18.0462 33.0486 17.7052 33.3171 17.3685 33.5941C17.1639 33.7603 16.9508 33.9266 16.7249 34.0715C16.5672 34.1695 16.4137 34.2633 16.239 34.323C16.0557 34.3912 15.9321 34.3869 15.7403 34.3613C15.6338 34.3485 15.5315 34.323 15.4335 34.2846C15.3312 34.242 15.2374 34.1866 15.1564 34.1141C15.0115 33.9777 14.9433 33.8626 14.9135 33.6708C14.8751 33.4492 14.8922 33.2233 14.922 33.0017C14.9646 32.7204 15.0456 32.4391 15.1436 32.1705C15.3056 31.706 15.4931 31.2456 15.7062 30.7981C15.9705 30.2568 16.2816 29.724 16.6567 29.2552ZM19.3121 34.8856C19.9216 33.9521 20.6547 33.0699 21.5114 32.3538C22.0612 31.8935 22.6664 31.463 23.374 31.2925C23.4038 31.2883 23.6041 31.2542 23.6084 31.2499C23.6595 31.2158 24.073 31.2115 24.1497 31.22C24.3884 31.2371 24.6143 31.3096 24.772 31.5056C24.9084 31.6719 24.9424 31.8636 24.9339 32.0725C24.9169 32.3154 24.87 32.4774 24.7805 32.699C24.7805 32.7033 24.7549 32.7971 24.7507 32.8099C24.5802 33.4279 24.2733 33.9223 23.9622 34.4764C23.4891 35.3203 22.9733 36.1429 22.4278 36.9442C21.8694 37.7711 21.277 38.5767 20.6803 39.3779C20.1688 40.0684 19.6531 40.7504 19.1459 41.4451C18.8006 41.914 18.4469 42.3785 18.0761 42.8303C17.8033 43.1628 17.5262 43.491 17.2193 43.7893C16.9849 44.011 16.7973 44.1687 16.4734 44.2454C16.3583 44.271 16.2391 44.2667 16.1368 44.2113C16.0302 44.1474 15.9663 44.0408 15.9236 43.9257C15.8299 43.6401 15.8469 43.41 15.898 43.1202C15.9705 42.6982 16.0898 42.2848 16.2134 41.8713C16.3711 41.3471 16.5544 40.8314 16.7505 40.3156C17.0744 39.4675 17.4026 38.6193 17.7734 37.7881C18.2167 36.7865 18.7111 35.8019 19.3121 34.8856ZM53.1626 24.2726C52.8941 24.0041 52.6298 23.7356 52.3613 23.4756C49.5567 20.7521 46.8502 18.3652 43.7303 16.0039C41.5992 14.4525 39.5874 13.1312 37.2645 11.8781C33.8761 10.1264 30.8073 8.86899 26.9755 8.52375C24.3926 8.36179 22.4021 8.52376 19.9258 9.29948C18.8304 9.67456 17.9567 10.0709 16.9636 10.6634C15.9918 11.2644 15.2459 11.844 14.4233 12.6368C12.4925 14.5889 11.4184 16.4174 10.3784 18.9449C9.09977 22.3078 8.63093 25.1975 8.39651 28.7778C8.39224 28.8076 8.39228 28.9057 8.38802 28.944C8.31556 32.8525 9.24046 35.7934 10.8814 39.3055C12.7738 43.1159 14.8623 46.0568 17.5731 49.3174C17.8033 49.5902 18.0334 49.8587 18.2679 50.1272C21.2599 53.4347 24.2307 56.2094 27.4444 58.9372C29.6096 60.169 31.843 61.2943 34.1233 62.1552C34.1617 62.168 34.3065 62.2191 34.3321 62.2319C37.0258 63.225 39.255 63.7919 42.1277 63.9922C44.8214 64.1116 46.8247 63.8644 49.3948 63.0418C49.5781 63.0204 50.341 62.6411 50.5285 62.5388C51.1934 62.1637 51.7177 61.7802 52.2973 61.2857C53.5632 60.1562 54.4455 59.0523 55.3661 57.633L55.5111 57.3986C53.0219 56.5163 50.7204 55.4039 48.1716 53.9078C44.8896 51.8833 42.4303 49.9141 39.6982 47.1906C38.2406 45.7201 36.834 44.2369 35.4318 42.711C30.4791 37.2809 25.9142 31.5141 21.1534 25.9179C20.1048 24.6861 19.0307 23.4841 17.9439 22.2907C17.4068 21.7025 14.9476 19.1367 17.0403 18.8895C18.0078 18.7744 18.9157 19.1068 19.7724 19.5118C21.3707 20.2576 22.8753 21.3147 24.2733 22.3845C26.2893 23.9274 28.1988 25.6536 30.0529 27.3883C33.5138 30.6148 36.9151 33.9053 40.3888 37.119C41.9615 38.5681 43.5385 40.0045 45.1411 41.4195C47.5365 43.4611 49.7656 45.0509 52.4551 46.6706C54.5265 47.8811 56.4871 48.8912 58.533 49.8076C58.5799 49.6158 58.6225 49.4197 58.6651 49.2194C58.8654 48.1752 59.0103 47.1821 59.1126 46.1208C59.5261 40.7546 58.9166 36.7226 57.0114 31.6804C57.0071 31.6463 56.8622 31.3053 56.8409 31.2456C55.8734 28.8204 54.5947 26.489 53.1626 24.2726ZM12.5053 3.55402C14.1292 2.56945 15.5443 1.92159 17.3429 1.32914C21.0297 0.220963 23.9622 0.0291717 27.7769 0.421296C32.9043 1.15013 36.6508 2.87632 40.9897 5.62544C43.5343 7.30049 45.644 8.96704 47.8817 11.0342C49.8423 12.8755 51.5173 14.64 53.0645 16.6049L53.1668 16.6774C57.4546 19.6609 60.8431 23.5268 63.3919 28.0703C63.4388 28.1513 63.6391 28.5434 63.6732 28.5817C66.742 34.7705 67.8672 39.932 67.4623 46.8283C67.3472 48.1965 67.1725 49.4581 66.9082 50.8007C65.9791 55.1055 64.7388 58.3576 62.4287 62.1126C61.0349 64.2565 59.7264 65.8676 57.8169 67.581C56.7428 68.5144 55.7668 69.2177 54.5265 69.9167C53.6911 70.3728 52.9367 70.7052 52.0331 71.0121C48.261 72.1842 45.2988 72.4655 41.3733 72.0606C37.5757 71.5491 34.7626 70.6029 31.34 68.9023C31.2846 68.8853 31.1568 68.8085 31.0971 68.7787C27.909 67.0909 24.9382 64.9683 22.317 62.4877C19.0606 60.3821 16.1154 57.9569 13.0935 55.1055C12.9699 55.0288 12.3903 54.4236 12.2411 54.2744C8.67786 50.6813 6.08639 47.4591 3.62283 43.0221C1.09107 38.1121 -0.140678 34.0331 0.0127621 28.4624C0.0127621 28.4411 0.0212533 28.3175 0.0212533 28.3047C0.332395 23.7569 0.97599 20.1553 2.59989 15.8846C4.1215 12.1722 5.73269 9.53817 8.55001 6.66544C9.82868 5.42514 10.9965 4.5045 12.5053 3.55402Z" fill="#fdc374" />
</svg>