<svg width="99" height="113" viewBox="0 0 99 113" fill="none" xmlns="http://www.w3.org/2000/svg">
	<path d="M42.3952 102.504C44.423 102.074 46.2428 101.464 48.3226 100.59C51.0878 99.3561 53.262 98.0515 55.7105 96.2743C61.4725 91.9303 65.5186 87.7471 69.9381 82.0608C74.8492 75.5095 78.47 69.4309 82.0623 62.0855C83.2015 59.6701 84.2413 57.2783 85.2292 54.7968C87.5832 48.8647 89.3652 42.7388 90.7832 36.5231C90.7643 35.7621 90.7171 34.9821 90.6462 34.1786C90.2208 30.4019 89.4125 27.788 87.5596 24.4603C87.4981 24.2618 86.7229 23.1273 86.5527 22.8816C85.7161 21.6951 84.8748 20.6411 83.9909 19.6579C83.8774 23.2313 83.0029 26.559 81.6133 29.8394C81.4904 30.123 80.4694 32.2784 80.4647 32.3115C79.1648 34.9537 77.7373 37.3361 76.1728 39.8223C73.1287 44.62 70.0469 49.2995 67.1116 54.1823C66.7192 54.9811 66.1803 55.8414 65.7502 56.6449C62.692 62.388 60.1584 68.4288 57.5209 74.3703C54.302 81.6259 50.9128 88.7114 46.8478 95.5369C45.4298 97.9192 43.9598 100.245 42.3952 102.504ZM22.8594 98.7889C23.0059 98.8882 23.1525 98.9874 23.3037 99.0867C24.3531 99.7343 25.3504 100.273 26.466 100.793C28.9948 101.894 31.2589 102.575 33.6034 102.887C35.4894 99.1056 37.3564 95.3195 39.0912 91.4719C44.9902 78.3881 49.8824 64.5481 57.7998 52.5043C58.4521 51.5117 59.1611 50.4292 59.8749 49.4886C63.0465 44.9982 66.3032 40.8717 69.7254 36.5797C71.6256 34.1975 73.5352 31.8057 75.2936 29.31C75.6906 28.738 76.083 28.1141 76.4469 27.5233C78.0257 24.9519 79.2405 22.3002 79.9967 19.3743C80.252 18.3817 80.4552 17.3701 80.6443 16.3539C80.096 15.8718 79.5288 15.3849 78.9285 14.8886C77.0378 13.4186 75.4212 12.5961 73.1429 11.8635C70.7937 11.1781 68.8463 10.9417 66.4545 10.9228L66.1142 11.1166C64.4977 12.0384 63.212 13.0168 61.723 14.1039C59.1942 16.2168 57.0198 18.3202 54.7841 20.7403C52.9595 22.7492 51.2721 24.7675 49.5988 26.8993C46.2428 31.2669 43.2318 35.6344 40.2539 40.2619C36.1747 46.6431 32.4832 53.478 29.562 60.4736C29.1602 61.4331 28.7679 62.3974 28.3803 63.3664C25.6577 70.4377 23.7008 76.7149 22.5474 84.2163C22.2449 86.4048 22.0701 88.475 21.9708 90.6777C22.0134 93.1782 22.2024 95.362 22.6562 97.8199C22.7082 98.0893 22.8263 98.5148 22.85 98.7653L22.8594 98.7889ZM82.3791 42.6442C82.0529 42.5781 81.7315 42.3795 81.462 42.1857C81.1359 41.9447 80.9232 41.7603 80.6963 41.4105C80.5782 41.2356 80.5025 41.0702 80.4364 40.8669C80.356 40.6164 80.3181 40.3707 80.3323 40.106C80.3418 39.8743 80.3843 39.6616 80.4741 39.4489C80.5592 39.2315 80.6538 39.0755 80.8003 38.9006C81.1312 38.5272 81.4431 38.376 81.9064 38.2247C82.4074 38.0687 82.9274 38.0451 83.4379 38.1774C83.712 38.2531 83.92 38.3428 84.1705 38.4799C84.3029 38.5319 84.6101 38.7635 84.7282 38.8581C85.0638 39.1275 85.3617 39.4395 85.6358 39.7656C85.8343 40.0067 86.0092 40.2572 86.151 40.5361C86.2691 40.763 86.3684 40.9899 86.4299 41.2404C86.4913 41.5004 86.4771 41.6658 86.3826 41.921C86.3306 42.0439 86.2597 42.1573 86.1652 42.2519C86.0706 42.3464 85.9572 42.4221 85.8343 42.474C85.7823 42.4977 85.7398 42.5166 85.6972 42.5308C85.5507 42.5875 85.4184 42.6064 85.2435 42.6111C85.0308 42.6159 84.8227 42.6017 84.6148 42.5922C84.4115 42.5828 84.2083 42.5733 84.0003 42.5686C83.7309 42.5639 83.4662 42.5922 83.1967 42.63C83.1447 42.6348 82.8375 42.6773 82.8045 42.6679C82.6532 42.6773 82.5303 42.6679 82.3791 42.6442ZM68.2128 68.3107C67.7969 68.2492 67.4188 68.0743 67.0832 67.8285C66.7712 67.5969 66.5916 67.4031 66.4309 67.0438C66.3505 66.8595 66.3033 66.6941 66.2654 66.4955C66.2229 66.2403 66.2135 65.9945 66.2371 65.7346C66.256 65.5124 66.2938 65.2949 66.3647 65.0822C66.4356 64.8742 66.5113 64.7135 66.6342 64.5386C66.9036 64.17 67.173 64.0235 67.5937 63.8816C68.0663 63.7162 68.558 63.6973 69.0448 63.8013C69.3237 63.858 69.5458 63.9478 69.8058 64.0565C69.9949 64.1322 70.1981 64.2503 70.373 64.3543C70.737 64.5718 71.0773 64.8223 71.4034 65.0917C71.6303 65.276 71.8478 65.484 72.0274 65.7156C72.1692 65.9047 72.2921 66.0938 72.3724 66.3159C72.4575 66.5523 72.4433 66.713 72.3677 66.9493C72.3252 67.0722 72.259 67.1904 72.1833 67.2944C72.103 67.3984 72.0085 67.4929 71.9092 67.5827L71.8336 67.6394C71.7155 67.7387 71.6067 67.8143 71.4555 67.8805C71.2853 67.9561 71.1246 68.0034 70.9497 68.0507C70.7559 68.1027 70.5573 68.1358 70.3588 68.1594C70.0327 68.2067 69.7113 68.2634 69.3804 68.3012C69.2433 68.3154 68.9502 68.3201 68.8462 68.3437C68.7375 68.3673 68.3357 68.3296 68.2128 68.3107ZM72.7033 62.8843C72.1124 62.7047 71.5311 62.4447 70.9686 62.1942C70.3872 61.9389 69.8767 61.7262 69.3426 61.367C69.1015 61.2063 68.9077 61.0503 68.7187 60.8281C68.5343 60.606 68.4114 60.3696 68.4067 60.0718C68.4067 59.8166 68.4965 59.6039 68.6525 59.4054C68.8463 59.1596 69.0495 59.0083 69.3189 58.8571C70.0138 58.46 70.6897 58.3324 71.4743 58.2473C72.3677 58.1575 73.2564 58.2284 74.1119 58.5168C74.8256 58.7578 75.4684 59.1407 76.0593 59.6134C76.5367 59.9915 76.9716 60.4216 77.4017 60.8612C77.7137 61.1826 78.0162 61.5182 78.2951 61.868C78.5362 62.1611 78.7678 62.4589 78.9711 62.7803C79.1601 63.0687 79.2641 63.2813 79.2877 63.6406C79.2924 63.7776 79.2688 63.9195 79.1932 64.0376L79.1885 64.0423C79.0987 64.1605 78.9758 64.2314 78.8387 64.274C78.782 64.2929 78.7347 64.3023 78.6875 64.3118C78.4464 64.3638 78.2431 64.3449 77.9784 64.2976C77.605 64.222 77.2458 64.118 76.8771 64.014C76.4989 63.9005 76.1208 63.7729 75.7426 63.65C75.2416 63.4893 74.7406 63.357 74.2254 63.2435C73.7149 63.1301 73.2043 63.0308 72.7033 62.8843ZM29.5337 83.512C29.1603 83.4789 28.8152 83.3276 28.5032 83.1196C28.1865 82.9117 27.9927 82.7321 27.7942 82.3965C27.6902 82.2216 27.6241 82.0608 27.5673 81.867C27.4917 81.6165 27.4586 81.3707 27.4539 81.1108C27.4539 80.8839 27.4775 80.6664 27.5342 80.449C27.5909 80.2363 27.6571 80.0708 27.7705 79.8865C28.0211 79.4942 28.281 79.324 28.6923 79.1444C29.146 78.9506 29.6281 78.8892 30.115 78.9648C30.3939 79.0073 30.5736 79.0782 30.8335 79.168C31.0037 79.22 31.259 79.3618 31.4197 79.4516C31.7742 79.6596 32.105 79.9054 32.4217 80.1654C32.6486 80.3545 32.8613 80.5577 33.0362 80.7941C33.178 80.9831 33.3056 81.1817 33.3907 81.4038C33.4758 81.6402 33.471 81.8056 33.4001 82.0467C33.3623 82.1743 33.3009 82.2877 33.2253 82.3965L33.2206 82.4012C33.1402 82.5051 33.0456 82.5997 32.9464 82.6801L32.866 82.7415C32.7384 82.8408 32.625 82.9069 32.4596 82.9637C32.2847 83.0251 32.1144 83.0723 31.9348 83.1149C31.7505 83.1622 31.5615 83.2 31.3724 83.2331C31.0888 83.285 30.8052 83.3607 30.5216 83.4221C30.4034 83.4458 30.1671 83.5025 30.0536 83.5025C29.8693 83.5025 29.7369 83.5309 29.5337 83.512ZM33.9768 76.3272C33.1827 76.3131 32.3981 76.2374 31.6087 76.1523C30.9375 76.0767 30.3466 76.0247 29.6896 75.8309C29.406 75.7506 29.1744 75.6608 28.9239 75.5048C28.6828 75.3535 28.4891 75.1645 28.3945 74.8856C28.3142 74.6398 28.3378 74.4082 28.4276 74.1719C28.541 73.8741 28.7017 73.6661 28.9239 73.4392C29.5336 72.8247 30.2474 72.4986 31.0462 72.2102C32.0294 71.8557 33.0645 71.695 34.1091 71.7376C35.0167 71.7801 35.9007 71.9739 36.7609 72.248C37.4747 72.4749 38.1695 72.7538 38.8548 73.0468C39.3511 73.2548 39.838 73.477 40.3107 73.7228C40.6936 73.9213 41.0764 74.1246 41.4356 74.3609C41.7476 74.5642 41.9509 74.7296 42.1258 75.0652C42.192 75.1928 42.2251 75.3346 42.1967 75.4764C42.1589 75.6088 42.0738 75.7175 41.9698 75.8026L41.9368 75.8215L41.8989 75.8499C41.6342 76.0342 41.3931 76.0956 41.0717 76.1382C40.6416 76.2044 40.2067 76.2232 39.7719 76.2374C39.285 76.2516 38.7981 76.2516 38.3113 76.2469C37.6117 76.2374 36.9121 76.2563 36.2125 76.28C35.4704 76.3036 34.7189 76.3367 33.9768 76.3272ZM63.6279 23.3117C63.0181 23.2077 62.432 23.0186 61.8742 22.7492C61.4252 22.5365 61.0896 22.3427 60.7587 21.9551C60.6169 21.785 60.5177 21.6242 60.4279 21.4115C60.3286 21.1658 60.2813 20.92 60.2861 20.6553C60.2908 20.4189 60.338 20.2062 60.4326 19.9935C60.5318 19.7666 60.6453 19.6153 60.8249 19.4452C61.2551 19.0387 61.7183 18.9064 62.2855 18.7882C63.004 18.6417 63.7461 18.6558 64.4693 18.7976C65.1547 18.9394 65.8164 19.1994 66.4356 19.5161C66.965 19.7902 67.4708 20.1022 67.9577 20.4426C68.2933 20.6789 68.6146 20.9389 68.8982 21.2319C69.1204 21.4588 69.3237 21.6998 69.4844 21.974C69.6309 22.2245 69.6781 22.4089 69.6309 22.7067C69.612 22.839 69.5647 22.9619 69.4844 23.0706C69.404 23.1793 69.3 23.2692 69.1818 23.3401L69.0732 23.4015C68.9077 23.4819 68.7706 23.5197 68.5673 23.5386C68.3026 23.5622 68.0474 23.5528 67.7827 23.5481C67.4755 23.5386 67.1729 23.5197 66.8657 23.5008C66.3741 23.463 65.8779 23.4629 65.3816 23.4488C64.7955 23.4299 64.2093 23.4063 63.6327 23.3117H63.6279ZM44.2859 46.5485C43.9409 46.5344 43.6383 46.4068 43.35 46.2366C43.0333 46.0475 42.8443 45.8915 42.6079 45.6079C42.4803 45.4519 42.381 45.3007 42.2865 45.1258C42.1636 44.8989 42.0738 44.6625 42.0218 44.412C41.9698 44.1851 41.9509 43.9677 41.9745 43.7408C41.9981 43.5139 42.0502 43.3391 42.1542 43.1358C42.3811 42.6915 42.6836 42.4788 43.1184 42.2613C43.5959 42.0203 44.1204 41.921 44.6498 41.9777C45.1273 42.025 45.5763 42.1952 45.997 42.4221C46.3515 42.6111 46.6824 42.8428 46.9991 43.0838C47.226 43.254 47.4386 43.4383 47.6277 43.651C47.7837 43.8212 47.9209 43.9961 48.0343 44.2041C48.1525 44.4262 48.1713 44.5822 48.1477 44.8327C48.1382 44.9651 48.1051 45.0927 48.0484 45.2109C47.9917 45.3338 47.9161 45.4425 47.8263 45.5417L47.798 45.5701L47.7837 45.5843C47.6514 45.7213 47.538 45.8064 47.3536 45.8868C47.1646 45.9671 46.9707 46.0192 46.7722 46.0712C46.5642 46.1279 46.3516 46.1704 46.1436 46.2082C45.8363 46.2649 45.5338 46.3453 45.2313 46.4162C44.9288 46.4918 44.5979 46.5627 44.2859 46.5485ZM49.4051 40.0067C48.611 39.9027 47.8358 39.7183 47.07 39.4962C46.4083 39.3024 45.8269 39.1228 45.2219 38.773C44.9713 38.6265 44.7633 38.4799 44.5695 38.2625C44.3757 38.0451 44.2481 37.8135 44.2339 37.5157C44.2245 37.2604 44.3048 37.0477 44.4467 36.8445C44.6263 36.5892 44.8153 36.4285 45.0753 36.2631C45.7559 35.8282 46.4413 35.6628 47.2212 35.5162C48.1619 35.3413 49.1119 35.313 50.0573 35.4642C50.8939 35.5966 51.6975 35.8613 52.468 36.2064C53.125 36.4994 53.7584 36.8445 54.3776 37.2084C54.8314 37.4684 55.2757 37.7567 55.6964 38.0687C56.0462 38.3287 56.3865 38.5886 56.6984 38.8912C56.9631 39.1464 57.1333 39.3497 57.2373 39.7183C57.2751 39.8554 57.2798 39.9972 57.2184 40.1296C57.1947 40.1769 57.1664 40.2146 57.1333 40.2525C57.0672 40.3234 56.9868 40.3754 56.897 40.4179C56.8592 40.4368 56.8214 40.451 56.7835 40.4652C56.5236 40.5644 56.2967 40.5786 56.0083 40.5692C55.5924 40.555 55.1859 40.5077 54.77 40.4652C54.3256 40.4226 53.8766 40.3612 53.4322 40.3092C52.7941 40.2336 52.156 40.1958 51.5132 40.1627C50.8089 40.1249 50.1046 40.0965 49.4051 40.0067ZM56.221 33.6822C55.9327 33.6397 54.3871 33.4364 54.25 33.375C54.094 33.3041 52.4443 33.0867 52.1418 33.0489C51.948 33.0205 51.759 32.9969 51.5652 32.978C50.9318 32.9071 50.2936 32.8598 49.6602 32.7842C49.3105 32.7463 48.9938 32.7038 48.6582 32.6045C48.3699 32.5195 48.0721 32.3871 47.9398 32.1035C47.8169 31.8483 47.8736 31.5883 47.987 31.3472C48.1619 30.9786 48.4124 30.7186 48.7197 30.4539C49.6556 29.655 50.7711 29.2864 51.9622 29.0689C52.917 28.9082 53.7206 28.8798 54.6848 28.9177C54.8739 28.8657 56.6322 29.0973 56.9395 29.1493C58.3575 29.3904 59.733 29.811 61.0518 30.3924C62.1153 30.8651 63.1269 31.4323 64.1053 32.0657C64.7955 32.5147 65.4619 33.0063 66.0858 33.5452C66.5868 33.9753 67.0737 34.4196 67.518 34.9112C67.8489 35.2799 68.1183 35.6108 68.2601 36.0977C68.3026 36.2442 68.3216 36.4238 68.2271 36.5561C68.1183 36.6837 67.934 36.7074 67.7733 36.7121C67.3195 36.7121 66.9603 36.5939 66.5396 36.4379C65.9535 36.2252 65.3815 35.9889 64.8001 35.7668C64.1526 35.521 63.505 35.2799 62.8527 35.0625C61.879 34.7363 60.8864 34.4905 59.8796 34.292C58.6695 34.0509 57.4405 33.8713 56.221 33.6822ZM13.8502 83.0156C12.6827 83.0535 11.5105 83.1433 10.3429 83.2425C10.688 84.3108 11.0614 85.327 11.4727 86.3244C12.3566 87.7755 13.2783 89.151 14.3371 90.5548C13.9353 88.1915 13.8219 86.0408 13.8361 83.5781L13.8502 83.0156ZM14.6869 74.8383C13.4815 74.8809 12.2762 74.9706 11.0756 75.0794C10.7353 75.1077 10.3854 75.1503 10.0498 75.1692C9.60078 75.1975 9.15176 75.2354 8.69799 75.2779C8.81616 76.5258 9.00525 77.7926 9.26049 79.135C10.8534 79.2248 12.4369 79.4186 14.0535 79.7164C14.2 78.0431 14.4127 76.4265 14.6869 74.8383ZM16.6532 66.6184C16.4074 66.6279 16.1616 66.6421 16.0056 66.6421C14.6584 66.6799 13.3114 66.7792 11.969 66.8973C11.6334 66.9257 11.2835 66.9682 10.9479 66.9919C10.2294 67.0344 9.50152 67.1053 8.7736 67.1762L8.74055 67.4835C8.63183 68.6793 8.56089 69.8043 8.53726 70.8915C10.7588 70.9245 12.9805 71.1656 15.1453 71.5721L15.3297 71.6099C15.7078 69.9414 16.1474 68.287 16.6532 66.6184ZM19.5223 58.3938C19.2718 58.4033 19.0165 58.4175 18.8606 58.4222C17.5134 58.4553 16.1616 58.5546 14.8192 58.6727C14.4836 58.7011 14.1338 58.7484 13.7982 58.7673C12.711 58.8382 11.6003 58.9564 10.5037 59.0698C10.1492 60.242 9.83243 61.4521 9.5441 62.7141C11.7373 62.7519 13.9258 62.9977 16.0434 63.39C16.431 63.4657 16.9746 63.5744 17.5749 63.7209C18.0192 62.4116 18.4919 61.0786 19.0024 59.7173C19.1725 59.273 19.3474 58.8334 19.5223 58.3938ZM23.1951 50.1787L23.0438 50.174C22.7602 50.1362 22.0323 50.1882 21.7108 50.1976C20.3637 50.2307 19.0118 50.3347 17.6742 50.4528C17.3338 50.4812 16.9841 50.5238 16.6485 50.5427C15.6937 50.6041 14.7152 50.7034 13.7462 50.8026C13.1554 52.0363 12.6118 53.2605 12.1108 54.4942C15.065 54.5179 18.1043 54.896 20.7087 55.5672C21.4981 53.7569 22.3253 51.9607 23.1951 50.1787ZM19.3238 42.8569C18.9173 42.8948 18.5108 42.9278 18.0996 42.9657C17.4709 43.9583 16.847 44.984 16.2231 46.0569L16.0907 46.2933C18.005 46.3736 19.9146 46.6006 21.7439 46.9456C22.382 47.0685 23.4266 47.2812 24.4854 47.5931C25.4213 45.7639 26.3951 43.9535 27.4019 42.1621C26.4802 42.2094 25.5632 42.285 24.6462 42.3653C24.3106 42.3937 23.9608 42.4363 23.6252 42.4552C22.2024 42.5497 20.7466 42.7246 19.3238 42.8569ZM26.3005 34.7694C25.5064 34.8403 24.7123 34.9112 23.9135 34.9726C23.0343 36.0409 22.2025 37.0997 21.3989 38.1774C22.4813 38.1727 23.5353 38.2153 24.5138 38.2956C25.3268 38.3618 27.2553 38.5745 29.2406 38.9715C30.0725 37.5629 30.9281 36.1685 31.7978 34.793L32.157 34.2306L31.6229 34.2778C31.2825 34.3062 30.9328 34.3487 30.5972 34.3724C29.1792 34.4622 27.7233 34.6371 26.3005 34.7694ZM37.4699 22.0544C38.6327 22.1158 39.7908 22.234 40.9252 22.3994C41.3837 21.8653 41.8516 21.3264 42.3337 20.7923C43.7423 19.2372 45.1273 17.8003 46.5973 16.3964C43.2602 18.1359 40.2729 19.9935 37.4699 22.0544ZM33.2772 26.6819C32.7478 26.7292 32.2185 26.7764 31.6844 26.8237C30.5547 27.8589 29.4344 28.946 28.3141 30.0899C30.4175 30.071 32.5257 30.2506 34.6007 30.5815C35.6264 29.1067 36.6758 27.6792 37.7677 26.2707L37.5739 26.2848C36.1559 26.3746 34.6953 26.5496 33.2772 26.6819ZM52.468 109.769C48.5825 111.442 45.3778 112.345 41.171 112.799C33.991 113.338 28.6545 112.255 22.297 108.876C21.8338 108.777 18.8133 106.645 18.2697 106.229C14.1621 102.986 11.5152 99.9281 8.83508 95.4424C8.2726 94.4356 7.78103 93.476 7.34144 92.5212C5.15767 89.4629 3.56945 86.2346 2.17032 82.2404C0.407236 76.8614 -0.126908 72.5316 0.0243488 66.8784C0.0716166 65.796 0.147245 64.7514 0.260688 63.6737C1.25804 55.1418 3.59305 48.8458 7.56827 41.264C10.7541 35.4832 13.9258 31.0116 18.2744 26.058C26.3099 17.3181 33.8208 11.4286 44.5033 6.20549C47.415 4.86308 50.1093 3.81375 53.1817 2.88257C57.6579 1.60162 61.3543 0.96351 66.0244 0.930423C69.7491 0.987144 72.6466 1.41254 76.1917 2.57533C79.7226 3.84211 82.1995 5.25539 85.045 7.69913C88.7413 11.0268 91.3977 13.9668 93.9597 18.2398C94.3803 18.9725 94.7679 19.7004 95.1414 20.4614C97.3157 25.0889 98.1712 28.7806 98.2138 33.8902C98.1003 37.7898 97.5142 41.004 96.4838 44.3506C95.8788 48.9025 94.7821 53.4307 93.487 57.6659C92.6173 60.4595 91.6813 63.1017 90.5894 65.8149C87.0916 74.342 83.4237 80.9075 77.865 88.2765C72.8168 94.6955 68.2034 99.4081 61.6805 104.352C58.6222 106.574 55.9091 108.205 52.468 109.769Z" fill="#fdc374" />
</svg>